# xmcd
#
# Track frame offsets: 
#        179
#        11952
#        25460
#        37315
#        48121
#        58823
#        73189
#        85672
#        98439
#        110363
#        121022
#        132122
#
# Disc length: 1992 seconds
#
# Revision: 3
# Processed by: cddbd v1.5.2PL0 Copyright (c) Steve Scherf et al.
# Submitted via: ExactAudioCopyFreeDBPlugin 1.0
#
DISCID=9d07c60c
DTITLE=JOHNNY CASH - 1964 - Johnny Cash - I Walk the Line
DYEAR=1964
DGENRE=Country
TTITLE0=I walk the line
TTITLE1=Bad news
TTITLE2=Folsom prison blues
TTITLE3=Give my love to Rose
TTITLE4=Hey porter
TTITLE5=I still miss someone
TTITLE6=Understand your man
TTITLE7=Wreck of the old 97
TTITLE8=Still in town
TTITLE9=Big river
TTITLE10=Goodbye, little darlin', goodbye
TTITLE11=Troublesome waters
EXTD=
EXTT0=
EXTT1=
EXTT2=
EXTT3=
EXTT4=
EXTT5=
EXTT6=
EXTT7=
EXTT8=
EXTT9=
EXTT10=
EXTT11=
PLAYORDER=
